<?xml version="1.0" encoding="utf-8"?>
<!-- Generator: Adobe Illustrator 24.0.0, SVG Export Plug-In . SVG Version: 6.00 Build 0)  -->
<svg version="1.1" id="Layer_1" xmlns="http://www.w3.org/2000/svg" xmlns:xlink="http://www.w3.org/1999/xlink" x="0px" y="0px"
	 viewBox="0 0 92.5 128.8" style="enable-background:new 0 0 92.5 128.8;" xml:space="preserve">
<style type="text/css">
	.st0{fill:none;stroke:#FFFFFF;stroke-width:2.5;stroke-miterlimit:2.6131;}
	.st1{fill:none;stroke:#FFFFFF;stroke-width:2.5;stroke-miterlimit:10;}
</style>
<g>
	<path class="st0" d="M91.3,68.5c0,32.6-26.4,59.1-59.1,59.1V68.5H91.3z"/>
	<path class="st1" d="M8,93h48.4V11H8V93z M6.7,1.3h51c3,0,5.4,2.4,5.4,5.4v90.6c0,3-2.4,5.4-5.4,5.4h-51c-3,0-5.4-2.4-5.4-5.4V6.7
		C1.3,3.7,3.7,1.3,6.7,1.3z"/>
	<line class="st0" x1="14.4" y1="22.9" x2="50" y2="22.9"/>
	<line class="st0" x1="14.4" y1="33" x2="50" y2="33"/>
	<path class="st0" d="M27,41.7c1.8,0,3.2,1.4,3.2,3.2c0,1.8-1.4,3.2-3.2,3.2c-1.8,0-3.2-1.4-3.2-3.2C23.8,43.2,25.2,41.7,27,41.7z"
		/>
	<polygon class="st0" points="22.6,51.3 26.7,56.1 26.7,56.1 22.6,60.9 22.6,60.9 14.3,60.9 18.4,56.1 	"/>
	<polygon class="st0" points="36.3,45 43.2,52.9 50.1,60.9 36.3,60.9 22.6,60.9 29.5,52.9 	"/>
	<rect x="39.3" y="75.6" class="st0" width="10" height="10"/>
</g>
</svg>
