<?xml version="1.0" encoding="utf-8"?>
<!-- Generator: Adobe Illustrator 24.0.0, SVG Export Plug-In . SVG Version: 6.00 Build 0)  -->
<svg version="1.1" id="Layer_1" xmlns="http://www.w3.org/2000/svg" xmlns:xlink="http://www.w3.org/1999/xlink" x="0px" y="0px"
	 viewBox="0 0 92.5 89.9" style="enable-background:new 0 0 92.5 89.9;" xml:space="preserve">
<style type="text/css">
	.st0{fill:none;stroke:#FFFFFF;stroke-width:2.5;stroke-miterlimit:2.6131;}
	.st1{fill-rule:evenodd;clip-rule:evenodd;fill:none;stroke:#FFFFFF;stroke-width:2.5;stroke-miterlimit:10;}
</style>
<g>
	<path class="st0" d="M10.2,1.3h47.6c4.9,0,8.9,4,8.9,8.9v21.9c-8.8,0-16.8,3.6-22.6,9.4c-4.5,4.5-7.7,10.4-8.9,16.9h-25
		c-4.9,0-8.9-4-8.9-8.9V10.2C1.3,5.3,5.3,1.3,10.2,1.3z"/>
	<path class="st1" d="M34,12.6c4,0,7.2,3.2,7.2,7.2s-3.2,7.2-7.2,7.2s-7.2-3.2-7.2-7.2S30,12.6,34,12.6z"/>
	<path class="st0" d="M34,12.6c4,0,7.2,3.2,7.2,7.2s-3.2,7.2-7.2,7.2s-7.2-3.2-7.2-7.2S30,12.6,34,12.6z"/>
	<path class="st1" d="M33.7,30l0.2,0l0.2,0c6.4,0,12.1,2.7,15.7,6.8c-2.1,1.3-4.1,2.9-5.9,4.6c-1.7,1.7-3.2,3.6-4.5,5.6H21.2
		c-6.5,0-6.8-2.7-6.5-4C16.7,35.6,24.5,30,33.7,30z"/>
	<path class="st0" d="M33.7,30l0.2,0l0.2,0c6.4,0,12.1,2.7,15.7,6.8c-2.1,1.3-4.1,2.9-5.9,4.6c-1.7,1.7-3.2,3.6-4.5,5.6H21.2
		c-6.5,0-6.8-2.7-6.5-4C16.7,35.6,24.5,30,33.7,30z"/>
	<polygon class="st0" points="55.5,60.1 61.5,67.1 78.5,52.9 82.3,57.4 60.8,75.4 51.1,64 	"/>
	<ellipse transform="matrix(0.5696 -0.8219 0.8219 0.5696 -24.0031 82.394)" class="st0" cx="66.7" cy="64.1" rx="24.6" ry="24.6"/>
</g>
</svg>
