<?xml version="1.0" encoding="utf-8"?>
<!-- Generator: Adobe Illustrator 24.0.0, SVG Export Plug-In . SVG Version: 6.00 Build 0)  -->
<svg version="1.1" id="Layer_1" xmlns="http://www.w3.org/2000/svg" xmlns:xlink="http://www.w3.org/1999/xlink" x="0px" y="0px"
	 viewBox="0 0 92.5 89.6" style="enable-background:new 0 0 92.5 89.6;" xml:space="preserve">
<style type="text/css">
	.st0{fill:none;stroke:#FFFFFF;stroke-width:2.5;stroke-miterlimit:10;}
</style>
<g>
	<path class="st0" d="M70.8,33.7c11.4,0.8,20.5,10.3,20.5,22c0,10.6-7.7,19.5-17.7,21.5l-1.4,3l-3,6.5l-3-6.5l-1.4-3
		c-5.9-1.2-11.1-4.8-14.2-9.8C63.4,61.2,71.7,48,70.8,33.7L70.8,33.7z"/>
	<path class="st0" d="M60,60.8c4.5-4.2,7.8-9.7,9.5-15.6c5.6,0.2,10.2,4.7,10.2,10.4c0,5.8-4.7,10.4-10.5,10.4
		C65.3,66.1,61.9,64,60,60.8L60,60.8z"/>
	<path class="st0" d="M32.3,1.3c17.2,0,31.1,13.9,31.1,31c0,15.1-10.6,27.7-25,30.5l-1.9,4.1L32.3,76l-4.2-9.2l-1.9-4.1
		C12,60,1.3,47.4,1.3,32.2C1.3,15.1,15.2,1.3,32.3,1.3L32.3,1.3z"/>
	<path class="st0" d="M32.3,12.6c11.1,0,20.2,9,20.2,20.1s-9.1,20.1-20.2,20.1s-20.2-9-20.2-20.1S21.3,12.6,32.3,12.6L32.3,12.6z"/>
	<path class="st0" d="M32.3,23.7c5,0,9.2,4.1,9.2,9s-4.2,9-9.2,9s-9.1-4.1-9.1-9S27.3,23.7,32.3,23.7L32.3,23.7z"/>
</g>
</svg>
