<?xml version="1.0" standalone="no"?>
<!DOCTYPE svg PUBLIC "-//W3C//DTD SVG 20010904//EN"
 "http://www.w3.org/TR/2001/REC-SVG-20010904/DTD/svg10.dtd">
<svg version="1.0" xmlns="http://www.w3.org/2000/svg"
 width="2048.000000pt" height="529.000000pt" viewBox="0 0 2048.000000 529.000000"
 preserveAspectRatio="xMidYMid meet">
<metadata>
Created by potrace 1.16, written by Peter Selinger 2001-2019
</metadata>
<g transform="translate(0.000000,529.000000) scale(0.100000,-0.100000)"
fill="#000000" stroke="none">
<path d="M10445 4855 c-117 -18 -218 -50 -325 -103 -79 -38 -110 -61 -181
-132 -143 -142 -199 -284 -199 -500 0 -203 52 -332 186 -460 121 -115 172
-134 679 -260 332 -83 425 -119 491 -192 23 -24 47 -62 54 -83 14 -44 8 -120
-14 -163 -58 -111 -245 -192 -447 -192 -266 0 -468 139 -495 338 l-7 52 -245
0 -245 0 7 -85 c38 -462 405 -717 1036 -719 256 0 452 61 637 200 177 133 260
292 270 520 7 149 -7 235 -53 328 -79 163 -218 269 -429 329 -49 14 -220 58
-380 97 -330 81 -384 99 -465 151 -136 88 -152 236 -39 347 118 116 403 147
589 65 112 -50 199 -157 215 -265 l7 -48 245 0 245 0 -7 76 c-23 251 -176 464
-425 594 -199 103 -465 143 -705 105z"/>
<path d="M6120 4783 c0 -9 84 -266 187 -572 103 -306 280 -833 394 -1171 l206
-615 241 -3 240 -2 25 77 c14 43 98 292 187 553 89 261 181 534 205 605 131
389 364 1074 374 1098 6 16 11 33 11 38 0 5 -105 9 -260 9 -260 0 -260 0 -271
-22 -5 -13 -43 -133 -85 -268 -41 -135 -120 -391 -176 -570 -157 -509 -197
-640 -220 -715 l-20 -70 -30 95 c-16 52 -35 115 -42 140 -8 25 -60 194 -116
375 -56 182 -140 454 -186 605 -91 296 -99 323 -122 388 l-15 42 -263 0 c-240
0 -264 -2 -264 -17z"/>
<path d="M8385 4790 c-6 -10 -67 -178 -130 -360 -18 -52 -56 -160 -85 -240
-29 -80 -67 -188 -85 -240 -18 -52 -56 -160 -85 -240 -29 -80 -67 -188 -85
-240 -38 -109 -114 -323 -175 -490 -23 -63 -45 -126 -50 -140 -15 -46 -118
-335 -129 -363 -23 -60 -35 -57 254 -57 146 0 265 1 265 3 0 1 30 88 66 192
36 105 73 211 81 238 l16 47 432 0 432 0 32 -111 c18 -62 45 -150 60 -198 15
-47 33 -105 40 -128 l12 -43 274 0 c151 0 275 4 275 8 0 14 -24 86 -80 242
-72 202 -160 450 -170 480 -4 14 -34 97 -65 185 -31 88 -72 203 -90 255 -18
52 -57 160 -85 240 -29 80 -67 188 -85 240 -19 52 -59 167 -90 255 -31 88 -61
171 -65 185 -28 82 -90 252 -100 269 -10 21 -17 21 -295 21 -176 0 -286 -4
-290 -10z m314 -643 c14 -45 37 -120 52 -167 15 -47 60 -188 99 -315 39 -126
80 -254 91 -283 10 -29 19 -55 19 -57 0 -3 -131 -5 -291 -5 l-290 0 6 23 c6
19 39 122 177 557 17 52 46 142 64 199 19 57 34 110 34 117 0 36 17 6 39 -69z"/>
<path d="M13400 3610 l0 -1190 240 0 240 0 2 774 3 775 69 -112 c38 -62 86
-139 106 -172 21 -33 81 -131 134 -217 53 -87 138 -227 189 -310 236 -385 295
-482 371 -605 l81 -133 253 0 252 0 0 1190 0 1190 -235 0 -235 0 -2 -762 -3
-763 -51 85 c-28 47 -82 135 -119 195 -37 61 -161 263 -275 450 -114 187 -250
410 -302 495 -52 85 -110 180 -128 210 -60 98 -29 90 -327 90 l-263 0 0 -1190z"/>
<path d="M12325 4763 c-293 -62 -513 -287 -579 -589 -9 -40 -19 -111 -22 -158
l-7 -86 234 2 234 3 7 80 c22 265 118 368 329 353 178 -13 319 -155 319 -321
0 -184 -123 -355 -395 -552 -473 -341 -557 -421 -655 -626 -54 -114 -100 -306
-100 -420 l0 -29 810 0 810 0 0 210 0 210 -506 2 -506 3 35 44 c52 66 142 138
332 268 436 298 564 442 627 703 16 71 16 249 0 320 -57 238 -208 420 -436
526 -149 68 -368 92 -531 57z"/>
<path d="M0 4684 c0 -3 8 -18 19 -32 10 -15 79 -133 153 -262 141 -245 325
-563 768 -1330 145 -250 305 -528 356 -617 51 -89 167 -290 258 -446 90 -156
173 -299 184 -318 23 -41 81 -142 305 -529 369 -639 489 -845 497 -853 4 -5
10 2 13 15 49 196 377 1621 376 1634 0 11 -88 100 -206 209 -444 412 -576 535
-719 671 -82 77 -224 210 -315 295 -205 190 -536 500 -769 719 -97 91 -272
255 -390 366 -118 110 -283 264 -366 342 -142 133 -164 151 -164 136z"/>
<path d="M17222 3773 l4 -878 23 -75 c35 -112 79 -188 151 -260 112 -111 234
-169 415 -196 147 -23 290 -8 427 43 158 58 280 180 339 338 54 145 61 200 66
528 l5 307 -221 0 -221 0 0 -212 c0 -292 -23 -438 -81 -519 -47 -66 -168 -95
-272 -65 -74 21 -111 55 -139 124 -22 56 -23 66 -26 495 l-3 437 480 0 481 0
0 170 0 170 -480 0 -480 0 0 235 0 235 -235 0 -236 0 3 -877z"/>
<path d="M4795 4287 c-451 -137 -821 -250 -822 -251 0 0 -204 -874 -453 -1941
-248 -1067 -453 -1948 -456 -1957 -4 -13 -1 -16 10 -12 9 3 16 10 16 15 0 5
22 46 49 91 27 46 132 227 233 403 185 320 319 554 601 1040 156 270 375 649
612 1060 76 132 194 337 262 455 69 118 151 260 183 315 166 288 293 507 378
655 52 91 122 210 154 264 32 55 57 103 56 106 -2 3 -372 -106 -823 -243z"/>
<path d="M19406 4239 c-109 -12 -193 -37 -304 -91 -183 -87 -274 -206 -308
-400 -47 -272 88 -470 384 -564 42 -14 178 -50 302 -80 315 -79 380 -112 380
-196 0 -57 -31 -95 -109 -132 -58 -27 -79 -31 -173 -34 -90 -4 -117 -1 -173
18 -115 38 -180 105 -192 200 l-6 40 -243 0 -244 0 0 -34 c0 -169 112 -343
288 -450 162 -97 326 -138 557 -138 290 1 484 69 629 222 99 105 146 228 146
386 0 141 -44 241 -146 333 -102 90 -235 139 -642 235 -165 40 -251 74 -282
114 -45 56 -10 129 85 177 55 28 68 30 165 30 95 0 110 -3 163 -29 65 -32 105
-82 127 -161 l13 -45 235 0 235 0 -7 58 c-14 125 -67 237 -154 326 -170 174
-427 250 -726 215z"/>
<path d="M16150 4233 c-149 -23 -307 -90 -402 -170 -139 -117 -228 -271 -275
-478 -25 -109 -24 -382 1 -510 44 -229 110 -361 239 -482 73 -68 143 -111 239
-147 198 -75 523 -79 696 -10 204 82 354 227 436 421 46 111 63 103 -213 103
l-239 0 -23 -46 c-43 -90 -153 -145 -289 -145 -155 0 -267 66 -331 196 -27 55
-57 161 -59 203 0 9 128 12 607 12 l606 0 -6 118 c-28 556 -247 866 -657 931
-62 10 -276 13 -330 4z m225 -388 c79 -13 179 -95 224 -182 16 -33 51 -146 51
-167 0 -3 -157 -6 -350 -6 -283 0 -350 3 -350 13 0 23 31 121 52 160 25 50 90
120 137 149 40 25 133 48 171 43 14 -2 43 -7 65 -10z"/>
<path d="M8430 1625 l0 -615 50 0 50 0 0 285 c0 284 0 286 25 334 29 58 95
117 144 131 51 14 136 12 174 -4 42 -18 71 -50 99 -111 21 -48 23 -64 26 -342
l4 -293 50 0 50 0 -5 293 c-4 315 -10 355 -61 435 -30 48 -100 97 -161 113
-100 27 -240 -14 -311 -93 l-34 -38 0 260 0 260 -50 0 -50 0 0 -615z"/>
<path d="M11180 1625 l0 -615 45 0 45 0 0 615 0 615 -45 0 -45 0 0 -615z"/>
<path d="M20370 1988 l0 -252 -37 36 c-69 67 -115 83 -228 83 -90 -1 -106 -4
-153 -28 -143 -75 -222 -222 -222 -413 0 -301 214 -486 473 -410 46 13 72 29
118 75 l59 57 0 -63 0 -63 45 0 45 0 0 615 0 615 -50 0 -50 0 0 -252z m-181
-224 c72 -21 134 -80 161 -150 30 -80 29 -289 -1 -370 -69 -185 -311 -233
-438 -88 -62 70 -75 114 -76 254 0 101 4 135 20 179 29 78 96 148 165 171 68
24 101 24 169 4z"/>
<path d="M6000 2135 l0 -45 188 0 187 0 -3 -540 -2 -540 50 0 50 0 0 540 0
540 190 0 190 0 0 45 0 45 -425 0 -425 0 0 -45z"/>
<path d="M15567 2173 c-4 -3 -7 -267 -7 -585 l0 -578 310 0 310 0 0 40 0 40
-260 0 -260 0 0 545 0 545 -43 0 c-24 0 -47 -3 -50 -7z"/>
<path d="M13365 2125 c-16 -15 -25 -36 -25 -55 0 -33 38 -80 64 -80 50 0 95
56 81 100 -10 30 -45 60 -72 60 -13 0 -35 -11 -48 -25z"/>
<path d="M16336 2129 c-20 -16 -26 -29 -26 -59 0 -102 130 -105 138 -3 3 34
-1 44 -24 62 -34 26 -54 27 -88 0z"/>
<path d="M18093 2128 c-28 -32 -34 -53 -22 -86 10 -28 44 -52 75 -52 26 0 64
47 64 80 0 37 -39 80 -73 80 -13 0 -33 -10 -44 -22z"/>
<path d="M18513 2005 l-33 -14 0 -76 0 -75 -70 0 -70 0 0 -40 0 -40 69 0 70 0
3 -317 3 -318 29 -49 c39 -67 92 -90 193 -84 41 3 79 10 85 16 6 6 7 23 3 41
l-6 30 -63 -6 c-73 -7 -98 4 -126 50 -19 30 -20 53 -20 335 l0 302 115 0 115
0 0 40 0 40 -115 0 -115 0 0 90 c0 100 -3 103 -67 75z"/>
<path d="M7055 1851 c-48 -12 -113 -49 -155 -87 -47 -43 -104 -152 -120 -231
-15 -72 -7 -232 14 -291 46 -124 144 -213 265 -242 93 -22 300 0 358 38 16 10
-5 85 -21 78 -91 -40 -243 -52 -329 -27 -63 18 -138 86 -165 148 -11 27 -25
79 -30 116 l-9 67 305 0 305 0 -6 98 c-8 153 -67 258 -174 312 -51 26 -178 37
-238 21z m163 -86 c83 -25 152 -128 152 -227 l0 -28 -249 0 -249 0 10 42 c12
54 53 129 89 164 31 30 117 63 165 64 17 0 53 -7 82 -15z"/>
<path d="M7917 1850 c-146 -37 -267 -161 -303 -308 -26 -109 -12 -259 33 -347
49 -95 150 -173 252 -195 73 -15 203 -9 276 14 77 24 79 27 64 70 -7 20 -15
36 -19 36 -3 0 -27 -9 -55 -19 -249 -94 -465 53 -465 317 0 193 97 325 260
352 73 12 169 1 222 -26 36 -18 35 -19 53 16 22 43 20 49 -32 72 -53 23 -222
34 -286 18z"/>
<path d="M9613 1846 c-56 -18 -106 -50 -141 -90 l-30 -34 -6 59 -7 59 -46 0
-46 0 6 -67 c4 -38 7 -224 7 -415 l0 -348 50 0 50 0 0 293 0 292 30 53 c57 99
164 147 270 122 69 -16 114 -57 140 -126 18 -51 20 -77 20 -344 l0 -290 51 0
50 0 -3 313 c-3 301 -4 314 -26 362 -28 60 -82 119 -137 148 -50 26 -172 33
-232 13z"/>
<path d="M10495 1851 c-89 -23 -194 -107 -243 -194 -71 -125 -69 -358 4 -483
29 -49 107 -125 153 -149 18 -9 63 -23 100 -30 198 -42 398 86 454 291 48 173
0 376 -114 478 -68 62 -140 89 -239 93 -47 1 -98 -1 -115 -6z m222 -102 c53
-26 98 -77 132 -148 23 -51 25 -68 25 -176 0 -105 -3 -126 -23 -169 -112 -236
-400 -249 -511 -22 -85 173 -42 401 94 499 70 50 198 57 283 16z"/>
<path d="M11753 1846 c-96 -31 -188 -109 -232 -195 -64 -125 -67 -316 -7 -447
99 -215 366 -284 566 -145 114 78 170 201 170 371 0 193 -72 324 -217 395 -48
23 -74 29 -148 31 -58 3 -105 -1 -132 -10z m194 -81 c142 -42 237 -233 204
-407 -34 -171 -130 -273 -270 -285 -178 -16 -311 134 -311 352 0 247 171 401
377 340z"/>
<path d="M12655 1847 c-61 -20 -85 -35 -143 -91 -88 -83 -132 -196 -132 -339
0 -173 85 -318 224 -383 42 -20 67 -24 141 -24 107 0 169 24 235 90 l42 42 -4
-103 c-5 -123 -29 -190 -89 -243 -86 -79 -266 -88 -400 -20 l-46 23 -16 -35
c-10 -19 -17 -38 -17 -43 0 -15 103 -53 183 -67 205 -36 386 51 447 214 32 85
40 191 42 600 l3 372 -47 0 -48 0 0 -56 0 -56 -41 42 c-22 23 -62 51 -87 63
-58 26 -189 33 -247 14z m174 -78 c62 -13 139 -78 170 -144 18 -39 21 -63 21
-187 0 -160 -12 -203 -73 -266 -56 -58 -102 -77 -192 -77 -92 0 -141 20 -193
80 -64 72 -77 116 -77 255 1 116 3 129 28 181 37 74 93 127 159 150 62 21 89
23 157 8z"/>
<path d="M13925 1847 c-67 -22 -98 -43 -147 -95 -112 -119 -151 -298 -106
-482 26 -106 97 -193 195 -242 55 -27 79 -33 155 -36 95 -5 189 8 251 35 41
18 41 18 26 62 -9 24 -16 30 -28 25 -65 -27 -117 -37 -201 -38 -85 -1 -101 2
-152 27 -94 46 -147 130 -163 260 l-7 57 303 2 304 3 3 51 c4 67 -21 174 -54
229 -29 49 -87 106 -136 131 -43 22 -189 29 -243 11z m168 -81 c25 -7 59 -23
76 -35 35 -26 76 -107 85 -173 l7 -48 -252 0 -251 0 6 33 c11 58 65 154 102
182 67 51 146 65 227 41z"/>
<path d="M14681 1849 c-118 -36 -191 -156 -161 -264 21 -75 69 -119 194 -179
120 -58 159 -91 174 -148 41 -150 -134 -236 -313 -154 l-55 25 -15 -36 c-20
-48 -20 -48 23 -66 181 -78 381 -30 443 108 24 52 24 138 0 190 -32 70 -77
103 -244 180 -88 41 -117 75 -117 139 0 117 144 173 276 105 21 -10 40 -19 42
-19 3 0 32 66 32 74 0 3 -19 15 -42 27 -49 25 -182 35 -237 18z"/>
<path d="M16948 1850 c-43 -13 -93 -47 -132 -90 l-36 -40 0 29 c0 16 -3 43 -6
60 -6 29 -9 31 -52 31 l-45 0 7 -52 c3 -29 6 -216 6 -415 l0 -363 49 0 50 0 3
298 3 297 27 47 c90 153 279 170 355 32 33 -60 43 -152 43 -426 l0 -248 44 0
45 0 3 298 c3 330 3 328 76 404 84 88 227 86 296 -4 49 -66 56 -118 56 -420
l0 -278 50 0 50 0 0 263 c0 144 -5 291 -10 326 -18 106 -65 182 -145 231 -35
22 -52 25 -130 25 -81 0 -95 -3 -144 -30 -30 -16 -71 -51 -91 -77 l-37 -46
-30 42 c-36 50 -84 89 -132 105 -39 13 -133 13 -173 1z"/>
<path d="M19177 1850 c-87 -22 -183 -104 -226 -193 -54 -113 -68 -287 -30
-400 44 -135 144 -231 268 -257 78 -16 228 -8 301 16 55 19 55 19 53 58 -2 22
-4 40 -6 42 -1 2 -23 -4 -47 -12 -24 -9 -79 -20 -121 -27 -64 -9 -87 -8 -142
6 -139 34 -205 117 -232 294 l-7 43 304 2 303 3 3 69 c6 139 -60 269 -167 329
-46 26 -66 31 -135 33 -45 2 -98 -1 -119 -6z m157 -81 c87 -22 148 -100 162
-206 l7 -53 -252 0 c-138 0 -251 1 -251 3 0 2 7 27 16 57 47 159 170 236 318
199z"/>
<path d="M13360 1425 l0 -415 50 0 50 0 0 415 0 415 -50 0 -50 0 0 -415z"/>
<path d="M16330 1425 l0 -415 50 0 50 0 0 415 0 415 -50 0 -50 0 0 -415z"/>
<path d="M18090 1425 l0 -415 50 0 50 0 0 415 0 415 -50 0 -50 0 0 -415z"/>
<path d="M13593 708 c-5 -7 -20 -71 -32 -143 -12 -72 -29 -160 -37 -197 -33
-155 -10 -213 84 -211 101 1 174 75 201 201 23 109 -30 200 -111 189 -20 -3
-51 -15 -68 -27 -35 -25 -35 -26 -15 77 8 43 15 88 15 101 0 24 -22 30 -37 10z
m153 -229 c45 -50 1 -217 -68 -259 -37 -22 -88 -26 -106 -8 -34 34 0 188 55
249 41 46 87 53 119 18z"/>
<path d="M14475 712 c-6 -4 -17 -41 -24 -82 -7 -41 -26 -151 -42 -245 -16 -93
-32 -182 -35 -197 -5 -25 -3 -28 19 -28 28 0 21 -27 83 325 37 214 39 235 23
235 -8 0 -19 -4 -24 -8z"/>
<path d="M19848 613 c-13 -3 -18 -15 -18 -39 0 -32 -2 -34 -35 -34 -28 0 -35
-4 -35 -20 0 -15 7 -20 26 -20 29 0 29 -3 -2 -155 -29 -142 -15 -185 57 -185
32 0 39 4 39 19 0 14 -8 21 -27 23 -38 4 -39 21 -13 170 l23 128 49 0 c41 0
48 3 48 20 0 17 -7 20 -43 20 l-43 0 4 40 c2 22 0 39 -4 39 -5 -1 -17 -3 -26
-6z"/>
<path d="M6474 536 c-47 -21 -97 -70 -122 -120 -90 -179 39 -334 177 -212 19
17 23 18 18 4 -3 -9 -11 -36 -17 -59 -7 -23 -25 -55 -41 -71 -27 -27 -34 -29
-82 -25 -28 2 -62 8 -73 11 -15 6 -23 3 -28 -10 -14 -35 73 -61 145 -44 68 17
112 69 133 158 15 62 55 292 59 336 4 37 -108 58 -169 32z m116 -48 c0 -29
-31 -171 -41 -191 -6 -12 -25 -37 -42 -54 -24 -26 -39 -33 -68 -33 -50 0 -64
20 -63 90 1 72 35 146 83 177 38 26 131 33 131 11z"/>
<path d="M8240 539 c-14 -6 -35 -20 -48 -32 l-24 -22 7 28 c6 24 4 27 -17 27
-23 0 -25 -6 -42 -97 -9 -54 -24 -131 -32 -172 -20 -102 -19 -111 11 -111 19
0 25 5 25 23 0 45 41 222 57 246 29 45 65 71 97 71 63 0 68 -34 36 -215 -24
-136 -25 -125 5 -125 14 0 25 3 25 8 0 4 9 57 20 117 29 159 27 200 -9 236
-31 31 -65 36 -111 18z"/>
<path d="M8774 531 c-105 -48 -172 -204 -130 -304 32 -78 122 -89 193 -24 l23
20 -16 -53 c-20 -66 -37 -94 -70 -108 -32 -15 -86 -15 -119 0 -22 10 -28 9
-36 -3 -14 -23 -5 -33 42 -47 34 -10 55 -11 96 -2 85 18 128 84 152 235 17
105 41 239 46 256 4 12 -6 21 -35 33 -52 21 -95 20 -146 -3z m126 -37 c0 -3
-5 -37 -11 -76 -13 -86 -30 -127 -70 -173 -25 -28 -38 -35 -69 -35 -52 0 -65
20 -64 94 0 71 26 129 74 170 26 21 42 26 86 26 30 0 54 -3 54 -6z"/>
<path d="M10155 536 c-67 -30 -121 -114 -132 -208 -4 -35 0 -57 16 -91 29 -59
63 -81 124 -80 60 1 109 37 149 109 36 64 39 170 8 222 -33 54 -104 75 -165
48z m114 -62 c29 -37 29 -128 -1 -190 -52 -111 -173 -110 -194 1 -10 53 20
141 61 182 44 44 103 47 134 7z"/>
<path d="M11549 537 c-106 -40 -179 -145 -179 -260 0 -119 120 -163 211 -77
l39 37 -6 -39 c-6 -35 -5 -38 18 -38 24 0 25 4 31 73 4 39 17 122 29 184 12
62 19 115 16 118 -14 14 -124 15 -159 2z m108 -54 c-3 -10 -13 -52 -23 -93
-28 -123 -86 -194 -153 -188 -48 4 -64 35 -56 106 12 112 90 192 188 192 41 0
48 -3 44 -17z"/>
<path d="M12385 538 c-11 -6 -30 -20 -43 -32 l-24 -21 7 28 c6 24 4 27 -16 27
-23 0 -25 -6 -52 -168 -33 -201 -33 -212 -7 -212 22 0 24 4 45 139 21 134 63
201 127 201 51 0 59 -43 34 -167 -8 -37 -17 -92 -21 -121 -7 -52 -6 -54 16
-50 22 3 25 11 41 108 29 170 62 230 127 230 58 0 62 -30 31 -215 -11 -66 -20
-121 -20 -122 0 -2 11 -3 24 -3 22 0 25 7 41 92 9 51 19 125 22 165 6 70 5 73
-25 102 -45 46 -93 41 -154 -17 -16 -14 -28 -20 -28 -13 0 6 -11 23 -25 36
-26 27 -66 32 -100 13z"/>
<path d="M13068 521 c-86 -54 -130 -194 -90 -284 25 -56 60 -80 116 -80 55 0
100 27 136 81 69 105 59 243 -23 292 -45 28 -85 25 -139 -9z m136 -54 c16 -21
21 -42 20 -85 -2 -122 -89 -212 -166 -171 -22 12 -48 66 -48 102 0 48 31 125
62 156 43 42 100 41 132 -2z"/>
<path d="M14835 536 c-118 -53 -172 -261 -89 -347 24 -25 35 -29 85 -29 62 0
109 15 109 36 0 21 -17 25 -62 13 -78 -21 -111 1 -124 79 l-6 39 58 8 c116 14
174 55 174 122 0 25 -8 43 -29 64 -33 32 -67 37 -116 15z"/>
<path d="M15615 531 c-89 -40 -152 -153 -142 -254 4 -42 10 -56 41 -84 33 -31
41 -33 104 -33 75 0 110 16 99 45 -5 12 -13 15 -25 10 -32 -13 -97 -17 -124
-6 -78 30 -51 206 42 269 29 20 45 23 95 20 48 -2 60 0 63 13 7 38 -87 50
-153 20z"/>
<path d="M16111 528 c-81 -40 -127 -132 -119 -240 3 -47 10 -64 33 -88 77 -80
200 -51 265 63 25 44 30 63 30 121 0 81 -22 125 -74 150 -46 22 -83 20 -135
-6z m114 -34 c45 -18 60 -135 25 -203 -46 -90 -125 -117 -181 -62 -25 25 -29
37 -29 83 0 65 36 145 77 170 28 18 78 23 108 12z"/>
<path d="M16745 538 c-11 -6 -30 -20 -42 -31 l-23 -20 0 26 c0 20 -5 27 -20
27 -21 0 -23 -5 -40 -110 -6 -36 -17 -96 -25 -135 -27 -139 -27 -135 0 -135
18 0 26 6 29 22 3 13 12 66 22 118 25 137 69 200 141 200 50 0 60 -29 44 -133
-7 -45 -17 -98 -21 -117 -22 -96 -22 -90 4 -90 29 0 30 3 51 128 20 113 35
152 75 186 34 28 87 35 108 14 17 -17 15 -82 -8 -184 -27 -121 -26 -144 3
-144 20 0 24 9 45 123 28 152 28 196 2 230 -41 52 -142 41 -191 -21 -15 -19
-19 -21 -19 -8 0 9 -11 28 -25 41 -26 27 -75 33 -110 13z"/>
<path d="M17545 533 c-16 -8 -37 -22 -46 -30 -15 -12 -16 -11 -12 12 5 21 2
25 -18 25 -23 0 -25 -7 -53 -163 -43 -239 -42 -217 -14 -217 24 0 26 5 43 103
10 56 24 119 32 139 29 72 107 117 153 88 20 -12 17 -95 -9 -214 -26 -118 -26
-116 2 -116 22 0 25 8 47 118 12 64 29 129 36 144 25 48 65 78 107 78 58 0 64
-27 37 -175 -12 -66 -24 -130 -27 -142 -4 -19 -1 -23 20 -23 28 0 25 -9 62
184 19 97 19 120 0 155 -30 59 -110 65 -176 11 l-36 -29 -13 24 c-24 44 -82
56 -135 28z"/>
<path d="M18945 533 c-16 -8 -38 -23 -48 -31 -17 -16 -18 -15 -12 11 6 24 4
27 -17 27 -23 0 -25 -6 -47 -122 -25 -136 -40 -214 -48 -241 -4 -15 0 -18 23
-15 27 3 29 7 41 73 32 175 33 178 79 223 37 38 47 43 81 40 57 -5 66 -31 48
-138 -7 -47 -18 -105 -24 -130 -15 -64 -14 -70 12 -70 26 0 32 17 62 192 18
104 12 140 -27 173 -34 29 -78 32 -123 8z"/>
<path d="M6945 528 c-2 -7 -9 -40 -14 -73 -6 -33 -19 -109 -30 -170 -25 -135
-26 -125 3 -125 21 0 25 6 36 67 6 38 20 114 31 171 24 131 24 142 -1 142 -11
0 -23 -6 -25 -12z"/>
<path d="M7241 518 c0 -13 12 -97 28 -188 26 -157 28 -165 50 -165 24 0 30 9
149 239 34 66 62 123 62 128 0 4 -10 8 -22 8 -19 0 -35 -24 -100 -149 l-76
-149 -23 149 c-22 142 -24 149 -46 149 -17 0 -23 -6 -22 -22z"/>
<path d="M7786 523 c-3 -10 -17 -85 -31 -168 -15 -82 -29 -160 -32 -172 -4
-19 -1 -23 20 -23 29 0 31 6 67 221 12 68 23 132 26 142 4 13 -1 17 -20 17
-15 0 -27 -7 -30 -17z"/>
<path d="M9555 521 c3 -11 10 -43 15 -73 5 -29 18 -97 30 -151 11 -55 20 -107
20 -116 0 -26 -55 -97 -95 -123 -19 -13 -35 -31 -35 -40 0 -33 40 -19 95 33
55 52 71 80 193 340 69 147 70 151 37 147 -24 -3 -33 -17 -87 -140 -33 -76
-63 -138 -67 -138 -3 0 -14 46 -25 103 -30 169 -33 177 -62 177 -20 0 -24 -4
-19 -19z"/>
<path d="M10611 428 c-28 -151 -28 -209 2 -244 33 -38 101 -39 150 -1 l34 26
-5 -25 c-4 -20 0 -24 19 -24 23 0 25 6 53 178 16 97 29 182 30 187 0 6 -9 11
-21 13 -25 4 -24 7 -49 -133 -20 -113 -33 -144 -73 -178 -35 -29 -60 -33 -92
-17 -25 14 -25 72 1 215 11 60 20 110 20 112 0 2 -11 3 -24 3 -22 0 -25 -6
-45 -112z"/>
<path d="M14100 538 c0 -2 -14 -84 -30 -182 -17 -98 -30 -183 -30 -187 0 -5
10 -9 23 -9 22 0 24 7 51 168 15 92 29 177 32 190 4 18 0 22 -21 22 -14 0 -25
-1 -25 -2z"/>
<path d="M18245 528 c-10 -30 -45 -236 -45 -266 0 -18 7 -46 15 -62 29 -55
127 -60 182 -8 l23 21 0 -26 c0 -35 37 -39 44 -4 3 12 16 90 31 172 14 83 28
158 31 168 4 13 -1 17 -20 17 -28 0 -29 -1 -51 -125 -9 -49 -25 -109 -36 -132
-33 -69 -115 -105 -153 -67 -21 20 -20 57 4 184 11 58 20 113 20 122 0 21 -38
25 -45 6z"/>
<path d="M19430 473 c-6 -38 -20 -110 -31 -160 -10 -51 -19 -107 -19 -124 0
-26 3 -30 22 -27 19 3 24 13 34 73 7 39 20 106 28 150 32 165 32 155 3 155
-23 0 -26 -5 -37 -67z"/>
<path d="M20190 528 c0 -7 9 -56 20 -108 11 -52 27 -130 36 -172 l16 -77 -30
-42 c-30 -41 -91 -89 -111 -89 -13 0 -14 -10 -2 -29 15 -24 61 -3 117 55 44
45 71 90 149 249 52 106 95 201 95 209 0 9 -8 16 -18 16 -18 0 -47 -51 -141
-250 l-25 -55 -7 40 c-3 22 -16 91 -29 153 -22 104 -25 112 -47 112 -13 0 -23
-6 -23 -12z"/>
</g>
</svg>
